<svg width="37" height="37" viewBox="0 0 37 37" fill="none" xmlns="http://www.w3.org/2000/svg">
<path d="M9.83199 4.13002C8.84346 4.32817 8.1172 4.55761 7.38085 4.91219C7.02781 5.07905 6.73529 5.21463 6.71511 5.21463C6.69494 5.21463 6.43268 5.37106 6.13007 5.55878C4.08241 6.83111 2.36763 8.97947 1.63128 11.2113C1.11684 12.7756 1.06641 13.1302 1.06641 14.9657C1.06641 17.0514 1.26815 18.0422 2.03476 19.69C2.35754 20.3887 2.62989 20.5973 3.06363 20.4826C3.19476 20.4513 6.36207 17.2496 10.1144 13.3596C15.4908 7.81143 16.9433 6.24709 16.9433 6.03851C16.9433 5.62136 16.6508 5.30849 15.9548 4.98519C13.9878 4.06745 11.7183 3.74415 9.83199 4.13002Z" fill="white"/>
<path d="M23.2474 4.17146C22.7531 4.28618 22.1176 4.44262 21.8453 4.52605C21.1291 4.76591 19.5959 5.5898 18.9604 6.07995C18.2342 6.64311 3.73917 21.6712 3.61813 21.984C3.56769 22.1196 3.52734 22.2656 3.52734 22.3073C3.52734 22.4951 5.70613 25.655 6.04909 25.9679C6.07935 25.9992 6.503 26.4893 6.97709 27.0629C7.46126 27.6365 8.03622 28.2831 8.27831 28.4917C8.51031 28.7107 8.96422 29.1487 9.28701 29.4616C9.71066 29.8787 9.94266 30.0352 10.1545 30.0352C10.3966 30.0352 11.9903 28.4291 21.2804 18.8241C27.2418 12.6606 32.1643 7.49829 32.2147 7.36271C32.3559 6.97684 32.1542 6.6744 31.3876 6.09038C29.0676 4.3279 25.9507 3.59787 23.2474 4.17146Z" fill="white"/>
<path d="M32.3465 9.14633C31.943 9.54263 27.0912 14.5485 21.5635 20.2844C10.8007 31.4433 11.2445 30.9323 11.6884 31.5163C12.1322 32.1004 16.5099 34.9162 17.4985 35.2499C17.7305 35.3333 18.1642 35.3646 18.5979 35.3333C19.3343 35.2812 19.647 35.1456 21.1802 34.207C21.4626 34.0401 21.7148 33.8941 21.735 33.8941C21.7552 33.8941 22.1284 33.6543 22.5621 33.3518C26.3649 30.7655 28.8665 28.3772 31.6202 24.7167C32.5281 23.5069 34.0108 21.1187 34.5858 19.9402C35.07 18.9391 35.4835 17.4999 35.6651 16.1441C35.8265 15.0074 35.8265 14.8197 35.6752 13.735C35.5844 13.0885 35.4432 12.3271 35.3524 12.0351C35.2717 11.7536 35.1507 11.3573 35.0902 11.1591C34.8884 10.4812 34.1722 9.09419 33.8696 8.77089C33.4056 8.28073 33.1837 8.3433 32.3465 9.14633Z" fill="white"/>
</svg>
