<svg width="37" height="37" viewBox="0 0 37 37" fill="none" xmlns="http://www.w3.org/2000/svg">
<path d="M17.886 2.84358C16.4434 2.93465 15.3131 3.27441 14.1794 3.96093C13.1791 4.5634 12.091 5.63872 11.4311 6.67202C11.0239 7.3095 10.5922 8.36031 10.4483 9.07486C9.97091 11.4252 10.4167 13.7019 11.7049 15.4813C12.2103 16.1818 12.9825 16.9594 13.6564 17.4463C14.6954 18.1959 15.8151 18.6372 17.2015 18.8474C17.6859 18.9209 18.8863 18.9314 19.3426 18.8649C21.3152 18.5812 22.7824 17.8421 24.1338 16.441C24.8077 15.744 25.2114 15.173 25.608 14.3604C26.1591 13.2255 26.3767 12.2518 26.3767 10.8928C26.3802 9.53371 26.152 8.50742 25.608 7.39007C25.1657 6.48637 24.6954 5.84538 23.9162 5.09581C22.8772 4.09053 21.8172 3.47406 20.522 3.11679C19.7147 2.89612 18.7003 2.79104 17.886 2.84358ZM19.311 7.03279C20.013 7.21493 20.5571 7.53017 21.0976 8.06608C21.8102 8.77013 22.1576 9.50219 22.2629 10.511C22.3542 11.3936 22.1366 12.2833 21.6487 13.0224C21.41 13.3902 20.873 13.9401 20.543 14.1643C20.2096 14.3884 19.7147 14.6126 19.3251 14.7177C19.0057 14.8018 18.9179 14.8123 18.3247 14.8123C17.7315 14.8123 17.6438 14.8018 17.3244 14.7177C16.4363 14.4795 15.5448 13.842 15.0183 13.0714C14.5058 12.3148 14.2672 11.2921 14.397 10.3603C14.5199 9.44264 14.8744 8.7386 15.5483 8.06959C16.1766 7.44611 16.8049 7.11686 17.6473 6.96624C18.0755 6.89268 18.8898 6.92421 19.311 7.03279Z" fill="white"/>
<path d="M10.2896 18.8823C9.84733 19.0014 9.36646 19.3516 9.12427 19.7299C8.76274 20.3009 8.66095 21.131 8.89612 21.6109C9.15235 22.1258 9.91753 22.7878 11.1636 23.5619C12.02 24.0943 12.9747 24.4866 14.1366 24.7773C14.6315 24.9034 15.7371 25.1066 16.218 25.1626C16.4005 25.1871 16.6041 25.2116 16.6708 25.2221L16.7901 25.2432L13.6662 28.3641C10.8968 31.1312 10.5248 31.513 10.43 31.7056C10.1422 32.2801 10.1457 32.865 10.4335 33.4044C10.5669 33.6531 11.0267 34.154 11.2794 34.3186C11.669 34.5778 12.1745 34.6724 12.6518 34.5708C13.2204 34.4517 13.1046 34.5533 15.8494 31.8177L18.3415 29.3343L20.8512 31.8317C23.1818 34.154 23.3749 34.3396 23.5785 34.4272C24.0628 34.6374 24.5227 34.6654 25 34.5183C25.6248 34.3256 26.3128 33.548 26.4356 32.8895C26.5163 32.4622 26.411 31.9333 26.1689 31.5375C26.1197 31.4534 24.6876 29.9998 22.9958 28.3115L19.914 25.2397L20.0404 25.2221C20.1106 25.2116 20.3001 25.1871 20.4651 25.1661C21.4023 25.047 22.6799 24.7668 23.4486 24.5076C24.5051 24.1503 25.2036 23.786 26.2917 23.026C27.0744 22.4795 27.5518 22.0172 27.7484 21.6109C28.1485 20.7877 27.6711 19.5233 26.7936 19.0609C26.3303 18.8192 25.9934 18.7772 25.4949 18.8963C25.0702 18.9979 24.8386 19.117 24.1155 19.6038C23.1678 20.2413 22.9783 20.3394 21.9919 20.6897C19.9105 21.4252 17.7589 21.5198 15.5686 20.9664C14.7017 20.7492 14.0909 20.511 13.3012 20.0837C12.8554 19.8455 12.8308 19.828 12.357 19.4918C11.5743 18.9313 10.8723 18.7247 10.2896 18.8823Z" fill="white"/>
</svg>
