<svg width="37" height="37" viewBox="0 0 37 37" fill="none" xmlns="http://www.w3.org/2000/svg">
<path d="M19.9284 19.4531H7.55576V14.3818H19.9284C20.6511 14.3818 21.1536 14.5122 21.4058 14.7401C21.658 14.9679 21.8142 15.3906 21.8142 16.0079V17.8289C21.8142 18.4793 21.658 18.9019 21.4058 19.1298C21.1536 19.3577 20.6511 19.455 19.9284 19.455V19.4531ZM20.7772 9.60059H2.30859V31.2882H7.55576V24.2323H17.2257L21.8142 31.2882H27.6899L22.631 24.1992C24.4961 23.9129 25.3336 23.3209 26.0243 22.3451C26.715 21.3694 27.0614 19.8095 27.0614 17.7276V16.1014C27.0614 14.8667 26.9353 13.891 26.715 13.1431C26.4948 12.3953 26.1184 11.7448 25.5839 11.1606C25.0193 10.6074 24.3907 10.2179 23.636 9.95697C22.8813 9.72911 21.9384 9.59863 20.7772 9.59863V9.60059Z" fill="white"/>
<path d="M31.8447 9.59856C34.1386 9.59856 35.998 7.84236 35.998 5.67599C35.998 3.50961 34.1386 1.75342 31.8447 1.75342C29.5509 1.75342 27.6914 3.50961 27.6914 5.67599C27.6914 7.84236 29.5509 9.59856 31.8447 9.59856Z" fill="white"/>
</svg>
