<svg width="37" height="37" viewBox="0 0 37 37" fill="none" xmlns="http://www.w3.org/2000/svg">
<path fill-rule="evenodd" clip-rule="evenodd" d="M36.0723 10.9959C36.3276 10.156 36.0723 9.5376 34.8494 9.5376H30.8114C29.7839 9.5376 29.3101 10.0714 29.0532 10.6605C29.0532 10.6605 26.9996 15.5768 24.0907 18.7703C23.1493 19.6963 22.7217 19.9901 22.2079 19.9901C21.951 19.9901 21.5649 19.6963 21.5649 18.8549V10.9959C21.5649 9.98677 21.2819 9.5376 20.4266 9.5376H14.0767C13.4352 9.5376 13.0491 10.0052 13.0491 10.4498C13.0491 11.405 14.5043 11.6266 14.6535 14.3154V20.1578C14.6535 21.4391 14.4181 21.6714 13.9044 21.6714C12.5353 21.6714 9.20497 16.7321 7.2283 11.0805C6.84527 9.98062 6.45763 9.5376 5.42546 9.5376H1.38444C0.230739 9.5376 0 10.0714 0 10.6605C0 11.7096 1.36905 16.9213 6.3761 23.8142C9.71414 28.5213 14.4135 31.0733 18.6945 31.0733C21.2619 31.0733 21.5788 30.5072 21.5788 29.5304V25.9724C21.5788 24.8387 21.8218 24.6126 22.6356 24.6126C23.2355 24.6126 24.2615 24.9079 26.6581 27.1769C29.3962 29.8673 29.8469 31.0733 31.3883 31.0733H35.4262C36.5799 31.0733 37.1583 30.5072 36.826 29.3874C36.4599 28.2736 35.1524 26.6569 33.4188 24.7387C32.4774 23.6466 31.0652 22.4698 30.6361 21.8806C30.0377 21.1253 30.2084 20.7885 30.6361 20.1162C30.6361 20.1162 35.5585 13.3079 36.0707 10.9959" fill="white"/>
</svg>
