<svg width="37" height="37" viewBox="0 0 37 37" fill="none" xmlns="http://www.w3.org/2000/svg">
<path fill-rule="evenodd" clip-rule="evenodd" d="M29.496 6.81399C29.8761 6.654 30.2922 6.59882 30.7009 6.65419C31.1096 6.70957 31.496 6.87348 31.8198 7.12885C32.1437 7.38423 32.3932 7.72174 32.5423 8.10626C32.6915 8.49078 32.7348 8.90825 32.6679 9.31521L29.1791 30.4771C28.8407 32.5184 26.601 33.689 24.7289 32.6722C23.1629 31.8216 20.8371 30.5109 18.7451 29.1434C17.699 28.4589 14.4948 26.2669 14.8886 24.7071C15.227 23.3734 20.611 18.3617 23.6875 15.3821C24.895 14.2115 24.3443 13.5362 22.9184 14.613C19.3773 17.2865 13.6919 21.3521 11.8121 22.4966C10.1538 23.5057 9.28934 23.678 8.25563 23.5057C6.36972 23.1919 4.62071 22.7058 3.1932 22.1136C1.26422 21.3137 1.35805 18.6617 3.19167 17.8895L29.496 6.81399Z" fill="white"/>
</svg>
