<svg width="124" height="119" viewBox="0 0 124 119" fill="none" xmlns="http://www.w3.org/2000/svg">
<path d="M24.9233 17.8299C22.2024 18.4107 19.9168 20.1533 18.7438 22.5251C17.9335 24.1708 17.7038 25.1994 17.6433 27.4865C17.5466 30.7659 18.0787 32.6174 19.9652 35.6063C20.5457 36.526 21.114 37.4336 21.2229 37.6151L21.4164 37.9539H23.2061H24.9838V44.8394C24.9838 52.4147 25.0201 52.8745 25.7215 54.6413C26.1447 55.7062 26.9429 56.9405 27.6322 57.6181C27.9103 57.8723 28.128 58.1385 28.128 58.1869C28.128 58.2353 27.6443 58.2837 27.0517 58.2837C24.3187 58.2837 22.2145 59.1429 20.3159 61.0064C19.5177 61.8051 19.2396 62.1802 18.768 63.1241C17.9577 64.782 17.7159 65.8469 17.6433 68.0008C17.5708 70.0459 17.7038 71.1108 18.2238 72.7445C18.647 74.0514 19.034 74.8258 20.3884 76.9677L21.4164 78.6014L23.2061 78.6135H24.9838V85.499C24.9838 91.2591 25.0201 92.5418 25.1773 93.3889C25.5522 95.4218 26.3745 96.9708 27.8136 98.3987C29.4945 100.069 31.5987 100.94 34.6946 101.255C36.2304 101.412 35.916 101.436 41.636 100.686L45.8928 100.129L47.1988 100.432C49.557 100.988 50.2825 101.061 53.5235 101.061C56.1961 101.049 56.8128 101.013 58.1672 100.771C59.9691 100.456 61.4203 100.057 62.6659 99.5362L63.5487 99.1732L64.4919 99.7298C66.3905 100.843 68.6761 101.315 71.6026 101.194C73.731 101.109 76.3794 100.819 77.4194 100.565C78.1208 100.395 78.1934 100.395 79.185 100.686C80.4306 101.049 82.7767 101.279 84.2278 101.194C85.5097 101.109 87.7106 100.734 89.0771 100.359L90.1051 100.081L90.746 100.371C91.7013 100.807 93.4186 101.109 95.293 101.182C97.6632 101.267 99.4651 100.976 102.972 99.9234L105.705 99.1127L105.741 88.6452C105.766 79.4968 105.754 78.0447 105.584 76.9798C104.992 73.3132 103.214 70.3363 100.336 68.1582C98.9088 67.0933 97.6149 66.4277 95.8493 65.859C92.2334 64.6852 87.6743 64.6731 84.2399 65.8348L83.3934 66.1252L82.4743 65.8348C79.1729 64.8183 75.1096 64.7336 71.3245 65.6169C69.2808 66.0889 66.9468 66.9844 65.5561 67.8314L64.7338 68.3276L63.9961 67.8677C62.7626 67.0812 62.4482 66.9118 61.3719 66.464C59.5217 65.7016 57.0426 65.1813 54.4667 64.9998C53.584 64.9393 53.2816 64.8788 53.2816 64.7578C53.2816 64.3584 52.4835 62.4344 51.9393 61.5268C51.6128 60.9943 51.3467 60.5224 51.3467 60.4982C51.3467 60.4861 52.2537 60.4619 53.3784 60.4619C56.9095 60.4619 59.9691 59.9536 62.4724 58.9493L63.5849 58.5015L64.0324 58.804C65.9189 60.0504 68.1319 60.5829 71.4817 60.5829C73.3924 60.5829 73.8399 60.5345 76.5245 60.0262L78.1813 59.7116L78.9431 59.9657C81.5553 60.8249 85.1953 60.7523 88.8353 59.7842L89.9962 59.4696L91.0846 59.8326C92.7897 60.4256 94.2651 60.6192 96.4539 60.5466C98.6911 60.4619 99.6828 60.2683 103.166 59.2155L105.705 58.4531L105.741 47.9978C105.766 38.8373 105.754 37.3852 105.584 36.3203C104.955 32.4116 102.887 29.1807 99.6344 27.0146C98.1832 26.0586 97.0102 25.5261 94.9907 24.9332C93.5153 24.4976 93.4548 24.4976 90.8306 24.437C87.8558 24.3765 86.5618 24.5097 84.6632 25.0784C84.0706 25.2599 83.466 25.4051 83.3329 25.4051C83.1999 25.393 82.5106 25.2357 81.8092 25.03C79.8501 24.4733 78.665 24.3523 75.932 24.437C73.1868 24.5097 71.5664 24.8001 69.0994 25.6229C67.8175 26.0465 65.8705 26.942 65.0119 27.4986C64.7217 27.6801 64.6854 27.668 64.0445 27.2445C61.5291 25.5382 58.6026 24.6791 54.2249 24.3281C53.3058 24.2555 53.3058 24.2555 53.2333 23.8804C53.0639 22.9849 52.2779 21.3997 51.117 19.5724L49.8714 17.6242L37.8267 17.6362C27.608 17.6483 25.6368 17.6726 24.9233 17.8299Z" fill="#5B71C1"/>
<path fill-rule="evenodd" clip-rule="evenodd" d="M48.874 63.3084C49.2833 63.9529 49.5726 64.6784 49.7914 65.3728C50.1109 66.3867 50.201 67.7508 50.201 68.4839C50.201 68.5493 50.2002 68.6161 50.1989 68.684C51.158 68.589 52.0863 68.5399 52.9819 68.5399C54.7627 68.5399 56.4507 68.7212 58.0242 69.1155C59.6364 69.5123 61.1254 70.1524 62.4132 71.0984C63.2959 71.7137 64.0521 72.4524 64.6729 73.3035C65.1789 72.6152 65.8016 71.9473 66.6485 71.3531C68.0925 70.3344 69.7605 69.7722 71.233 69.3295L71.2412 69.3271L71.2496 69.3246C73.0727 68.7871 74.9302 68.5708 76.7752 68.5708C78.2115 68.5708 79.673 68.7431 81.1451 69.1916C81.908 69.4049 82.6393 69.682 83.3318 70.0279C83.9042 69.7506 84.4978 69.5043 85.111 69.2884L85.1234 69.2839L85.1359 69.2796C86.6867 68.7479 88.3196 68.5708 90.064 68.5708C91.3622 68.5708 92.7987 68.7031 94.1887 69.0873L94.1889 69.0871C95.6275 69.4768 96.9505 70.1153 98.1156 71.0229C99.4131 71.9799 100.391 73.2372 101.079 74.6961C101.827 76.2564 102.125 78.0055 102.125 79.8173V96.3478L99.8462 97.0329C99.3077 97.1948 98.6424 97.3074 97.9863 97.3975C97.9796 97.3985 97.973 97.3995 97.9664 97.4004L97.9662 97.4002C97.2014 97.5087 96.4178 97.5608 95.6185 97.5608C94.8384 97.5608 94.0787 97.5076 93.3515 97.3862L93.3214 97.3811C92.4085 97.2196 91.5026 96.8715 90.6961 96.2652C90.3053 95.9715 89.9655 95.6372 89.6729 95.2734V96.4111L87.3169 97.055C86.7956 97.1975 86.157 97.306 85.4909 97.3975C85.4843 97.3985 85.4776 97.3995 85.471 97.4004L85.4708 97.4002C84.7126 97.5078 83.944 97.5608 83.1667 97.5608C82.3866 97.5608 81.6268 97.5076 80.8997 97.3862L80.8696 97.3811C79.9567 97.2196 79.0508 96.8715 78.2443 96.2652C77.8535 95.9715 77.5137 95.6372 77.2211 95.2734V96.3478L74.9426 97.0329C74.404 97.1948 73.7387 97.3074 73.0826 97.3975L73.0828 97.3977C73.0761 97.3987 73.0694 97.3995 73.0627 97.4004L73.0625 97.4002C72.2977 97.5087 71.5143 97.5608 70.715 97.5608C69.9349 97.5608 69.175 97.5076 68.4478 97.3862L68.4178 97.3811C67.5048 97.2196 66.599 96.8715 65.7924 96.2652C65.1206 95.7602 64.5986 95.1361 64.2106 94.446C63.814 94.7805 63.39 95.0818 62.9427 95.3508C60.3556 96.9066 57.0394 97.5092 53.3303 97.5092C51.595 97.5092 49.9536 97.3455 48.4264 96.9895L48.4182 96.9877L48.41 96.9858C46.8972 96.6248 45.4903 96.0611 44.2391 95.2521L44.2188 95.2389L44.1989 95.2256C43.6231 94.8409 43.0976 94.4038 42.6256 93.9167V96.4804L40.2696 97.1245C39.7223 97.2741 39.0308 97.3823 38.3177 97.472L38.3179 97.4722C38.3159 97.4725 38.3138 97.4725 38.3118 97.4728C38.3082 97.4733 38.3045 97.4739 38.3009 97.4744L38.3007 97.4742C37.5029 97.5777 36.703 97.6301 35.9017 97.6301C35.0729 97.6301 34.2554 97.5597 33.4723 97.3899C32.5895 97.2219 31.716 96.8777 30.9356 96.291C30.034 95.6133 29.4344 94.7178 29.0766 93.7616C28.7168 92.7998 28.6118 91.7647 28.6118 90.8037V74.9799H23.5233L22.5809 73.4958C22.1717 72.8512 21.8823 72.1256 21.6635 71.4311C21.371 70.5026 21.2539 69.4788 21.2539 68.6148C21.2539 67.8368 21.3364 66.99 21.5298 66.1941C21.6958 65.5116 22.0542 64.3828 22.9304 63.5045L22.9628 63.4723L22.996 63.4408C24.1909 62.3097 25.6804 61.8242 27.194 61.8242H47.9317L48.874 63.3084ZM33.9348 94.2142C33.9646 94.2211 33.9947 94.2275 34.025 94.2336C33.9644 94.2213 33.905 94.2077 33.8466 94.1927L33.9348 94.2142Z" fill="#849ADC"/>
<path d="M25.2764 71.7758C25.0733 71.4558 24.8846 71.0194 24.7104 70.4667C24.5363 69.914 24.4492 69.2263 24.4492 68.6154C24.4492 67.4808 24.6959 66.2657 25.1894 65.7711C25.7118 65.2766 26.3794 65.0293 27.1921 65.0293H46.1746C46.3778 65.3493 46.5665 65.7857 46.7406 66.3384C46.9148 66.8911 47.0018 67.8735 47.0018 68.4844C47.0018 69.619 46.7406 70.5394 46.2181 71.034C45.7247 71.5285 45.0717 71.7758 44.2589 71.7758H39.4262V94.0333C39.107 94.1206 38.599 94.2078 37.9024 94.2951C37.2348 94.3824 36.5673 94.426 35.8997 94.426C35.2321 94.426 34.6371 94.3678 34.1146 94.2515C33.6212 94.1642 33.2003 93.9897 32.852 93.7278C32.5037 93.466 32.2425 93.1024 32.0683 92.6369C31.8942 92.1714 31.8071 91.5605 31.8071 90.8042V71.7758H25.2764Z" fill="#FDFDFD"/>
<path d="M53.3283 88.8942C53.8217 88.8942 54.3586 88.8506 54.9392 88.7633C55.5487 88.6469 55.9986 88.5015 56.2888 88.3269V84.836L53.1541 85.0978C52.3414 85.156 51.6738 85.3305 51.1514 85.6214C50.6289 85.9123 50.3677 86.3487 50.3677 86.9305C50.3677 87.5124 50.5854 87.9924 51.0207 88.3706C51.4851 88.7197 52.2543 88.8942 53.3283 88.8942ZM52.9799 71.7449C54.5473 71.7449 55.9695 71.9049 57.2467 72.2249C58.5528 72.5449 59.6558 73.0395 60.5555 73.7086C61.4843 74.3486 62.1955 75.1777 62.6889 76.1959C63.1823 77.185 63.429 78.3632 63.429 79.7305V89.5051C63.429 90.2615 63.2113 90.8869 62.776 91.3815C62.3696 91.847 61.8762 92.2542 61.2957 92.6033C59.409 93.7379 56.7532 94.3052 53.3283 94.3052C51.7899 94.3052 50.3967 94.1597 49.1486 93.8688C47.9296 93.5779 46.8701 93.1415 45.9704 92.5597C45.0996 91.9779 44.4175 91.236 43.9241 90.3342C43.4597 89.4324 43.2275 88.3851 43.2275 87.1924C43.2275 85.1851 43.8225 83.6432 45.0125 82.5669C46.2026 81.4905 48.0457 80.8214 50.5418 80.5596L56.2453 79.9487V79.6432C56.2453 78.7996 55.868 78.2032 55.1133 77.8541C54.3877 77.4759 53.3283 77.2868 51.935 77.2868C50.8321 77.2868 49.7581 77.4032 48.7132 77.6359C47.6683 77.8686 46.725 78.1595 45.8833 78.5086C45.5059 78.2468 45.1867 77.8541 44.9254 77.3304C44.6642 76.7777 44.5336 76.2104 44.5336 75.6286C44.5336 74.8722 44.7078 74.2759 45.0561 73.8395C45.4334 73.374 45.9994 72.9813 46.754 72.6613C47.5958 72.3413 48.5826 72.1086 49.7146 71.9631C50.8756 71.8177 51.9641 71.7449 52.9799 71.7449Z" fill="#FDFDFD"/>
<path d="M76.7732 71.7758C77.9632 71.7758 79.1158 71.9195 80.2477 72.2686C81.4088 72.5886 82.4101 73.0831 83.2519 73.7522C84.1226 73.1704 85.095 72.6904 86.1689 72.3122C87.2719 71.934 88.5237 71.7758 90.062 71.7758C91.165 71.7758 92.3077 71.8904 93.3526 72.1813C94.4266 72.4722 95.3699 72.9377 96.1826 73.5777C97.0243 74.1886 97.6919 75.0177 98.1853 76.065C98.6788 77.0832 98.9255 78.3341 98.9255 79.8177V93.9639C98.6352 94.0512 98.1708 94.1385 97.5323 94.2257C96.9227 94.313 96.2842 94.3566 95.6166 94.3566C94.9781 94.3566 94.3975 94.313 93.8751 94.2257C93.3817 94.1385 92.9608 93.9639 92.6125 93.7021C92.2642 93.4403 91.9884 93.0912 91.7853 92.6548C91.6111 92.1893 91.524 91.593 91.524 90.8657V80.0359C91.524 79.1632 91.2773 78.5377 90.7839 78.1595C90.2905 77.7523 89.6229 77.5486 88.7812 77.5486C88.3748 77.5486 87.9394 77.6504 87.475 77.8541C87.0106 78.0286 86.6623 78.2177 86.4301 78.4214C86.4591 78.5377 86.4737 78.6541 86.4737 78.7705C86.4737 78.8577 86.4737 78.945 86.4737 79.0323V93.9639C86.1544 94.0512 85.6755 94.1385 85.0369 94.2257C84.4274 94.313 83.8033 94.3566 83.1648 94.3566C82.5262 94.3566 81.9457 94.313 81.4233 94.2257C80.9298 94.1385 80.509 93.9639 80.1607 93.7021C79.8124 93.4403 79.5366 93.0912 79.3334 92.6548C79.1593 92.1893 79.0722 91.593 79.0722 90.8657V80.0359C79.0722 79.1632 78.7965 78.5377 78.245 78.1595C77.7225 77.7523 77.084 77.5486 76.3293 77.5486C75.8069 77.5486 75.357 77.6359 74.9797 77.8104C74.6023 77.9559 74.2831 78.1014 74.0218 78.2468V93.9639C73.7316 94.0512 73.2672 94.1385 72.6286 94.2257C72.0191 94.313 71.3805 94.3566 70.7129 94.3566C70.0744 94.3566 69.4939 94.313 68.9714 94.2257C68.478 94.1385 68.0571 93.9639 67.7088 93.7021C67.3605 93.4403 67.0848 93.0912 66.8816 92.6548C66.7075 92.1893 66.6204 91.593 66.6204 90.8657V77.2868C66.6204 76.5013 66.78 75.8759 67.0993 75.4104C67.481 74.854 67.8997 74.3862 68.4802 73.9789C69.467 73.2808 70.6984 72.8359 72.1497 72.3995C73.63 71.9631 75.1768 71.7758 76.7732 71.7758Z" fill="#FDFDFD"/>
<path fill-rule="evenodd" clip-rule="evenodd" d="M48.874 22.7127C49.2833 23.3572 49.5726 24.0827 49.7914 24.7771C50.1109 25.791 50.201 27.1551 50.201 27.8882C50.201 27.9536 50.2002 28.0204 50.1989 28.0883C51.158 27.9933 52.0863 27.9442 52.9819 27.9442C54.7627 27.9442 56.4507 28.1255 58.0242 28.5198C59.6364 28.9166 61.1254 29.5567 62.4132 30.5027C63.2959 31.118 64.0521 31.8567 64.6729 32.7078C65.1789 32.0195 65.8016 31.3516 66.6485 30.7574C68.0925 29.7387 69.7605 29.1765 71.233 28.7338L71.2412 28.7314L71.2496 28.7289C73.0727 28.1914 74.9302 27.9751 76.7752 27.9751C78.2115 27.9751 79.673 28.1474 81.1451 28.5959C81.908 28.8092 82.6393 29.0863 83.3318 29.4322C83.9042 29.1549 84.4978 28.9086 85.111 28.6927L85.1234 28.6882L85.1359 28.6839C86.6867 28.1522 88.3196 27.9751 90.064 27.9751C91.3622 27.9751 92.7987 28.1074 94.1887 28.4916L94.1889 28.4914C95.6275 28.8811 96.9505 29.5196 98.1156 30.4272C99.4131 31.3842 100.391 32.6415 101.079 34.1004C101.827 35.6607 102.125 37.4098 102.125 39.2216V55.7521L99.8462 56.4372C99.3077 56.5991 98.6424 56.7117 97.9863 56.8018C97.9796 56.8027 97.973 56.8038 97.9664 56.8047L97.9662 56.8045C97.2014 56.913 96.4178 56.9651 95.6185 56.9651C94.8384 56.9651 94.0787 56.9119 93.3515 56.7905L93.3214 56.7854C92.4085 56.6239 91.5026 56.2758 90.6961 55.6695C90.3053 55.3758 89.9655 55.0415 89.6729 54.6777V55.8154L87.3169 56.4593C86.7956 56.6018 86.157 56.7103 85.4909 56.8018C85.4843 56.8027 85.4776 56.8038 85.471 56.8047L85.4708 56.8045C84.7126 56.9121 83.944 56.9651 83.1667 56.9651C82.3866 56.9651 81.6268 56.9119 80.8997 56.7905L80.8696 56.7854C79.9567 56.6239 79.0508 56.2758 78.2443 55.6695C77.8535 55.3758 77.5137 55.0415 77.2211 54.6777V55.7521L74.9426 56.4372C74.404 56.5991 73.7387 56.7117 73.0826 56.8018L73.0828 56.802C73.0761 56.803 73.0694 56.8038 73.0627 56.8047L73.0625 56.8045C72.2977 56.913 71.5143 56.9651 70.715 56.9651C69.9349 56.9651 69.175 56.9119 68.4478 56.7905L68.4178 56.7854C67.5048 56.6239 66.599 56.2758 65.7924 55.6695C65.1206 55.1645 64.5986 54.5404 64.2106 53.8503C63.814 54.1848 63.39 54.4861 62.9427 54.7551C60.3556 56.3109 57.0394 56.9135 53.3303 56.9135C51.595 56.9135 49.9536 56.7498 48.4264 56.3938L48.4182 56.392L48.41 56.3901C46.8972 56.0291 45.4903 55.4654 44.2391 54.6563L44.2188 54.6432L44.1989 54.6299C43.6231 54.2452 43.0976 53.8081 42.6256 53.321V55.8847L40.2696 56.5288C39.7223 56.6784 39.0308 56.7866 38.3177 56.8763L38.3179 56.8765C38.3159 56.8768 38.3138 56.8768 38.3118 56.8771C38.3082 56.8776 38.3045 56.8782 38.3009 56.8787L38.3007 56.8785C37.5029 56.982 36.703 57.0344 35.9017 57.0344C35.0729 57.0344 34.2554 56.964 33.4723 56.7942C32.5895 56.6262 31.716 56.282 30.9356 55.6953C30.034 55.0176 29.4344 54.1221 29.0766 53.1659C28.7168 52.2041 28.6118 51.169 28.6118 50.208V34.3842H23.5233L22.5809 32.9001C22.1717 32.2555 21.8823 31.5299 21.6635 30.8354C21.371 29.9069 21.2539 28.8831 21.2539 28.0191C21.2539 27.2411 21.3364 26.3943 21.5298 25.5984C21.6958 24.9159 22.0542 23.787 22.9304 22.9088L22.9628 22.8766L22.996 22.8451C24.1909 21.714 25.6804 21.2285 27.194 21.2285H47.9317L48.874 22.7127ZM33.9348 53.6185C33.9646 53.6254 33.9947 53.6318 34.025 53.6379C33.9644 53.6256 33.905 53.612 33.8466 53.597L33.9348 53.6185Z" fill="#849ADC"/>
<path d="M25.2764 31.1801C25.0733 30.8601 24.8846 30.4237 24.7104 29.871C24.5363 29.3183 24.4492 28.6306 24.4492 28.0197C24.4492 26.8851 24.6959 25.67 25.1894 25.1754C25.7118 24.6809 26.3794 24.4336 27.1921 24.4336H46.1746C46.3778 24.7536 46.5665 25.19 46.7406 25.7427C46.9148 26.2954 47.0018 27.2778 47.0018 27.8887C47.0018 29.0233 46.7406 29.9437 46.2181 30.4383C45.7247 30.9328 45.0717 31.1801 44.2589 31.1801H39.4262V53.4376C39.107 53.5249 38.599 53.6121 37.9024 53.6994C37.2348 53.7867 36.5673 53.8303 35.8997 53.8303C35.2321 53.8303 34.6371 53.7721 34.1146 53.6558C33.6212 53.5685 33.2003 53.3939 32.852 53.1321C32.5037 52.8703 32.2425 52.5067 32.0683 52.0412C31.8942 51.5757 31.8071 50.9648 31.8071 50.2085V31.1801H25.2764Z" fill="#FDFDFD"/>
<path d="M53.3283 48.2985C53.8217 48.2985 54.3586 48.2549 54.9392 48.1676C55.5487 48.0512 55.9986 47.9058 56.2888 47.7312V44.2403L53.1541 44.5021C52.3414 44.5603 51.6738 44.7348 51.1514 45.0257C50.6289 45.3166 50.3677 45.753 50.3677 46.3348C50.3677 46.9167 50.5854 47.3967 51.0207 47.7749C51.4851 48.1239 52.2543 48.2985 53.3283 48.2985ZM52.9799 31.1492C54.5473 31.1492 55.9695 31.3092 57.2467 31.6292C58.5528 31.9492 59.6558 32.4438 60.5555 33.1129C61.4843 33.7529 62.1955 34.582 62.6889 35.6002C63.1823 36.5893 63.429 37.7675 63.429 39.1348V48.9094C63.429 49.6658 63.2113 50.2912 62.776 50.7858C62.3696 51.2513 61.8762 51.6585 61.2957 52.0076C59.409 53.1422 56.7532 53.7095 53.3283 53.7095C51.7899 53.7095 50.3967 53.564 49.1486 53.2731C47.9296 52.9822 46.8701 52.5458 45.9704 51.964C45.0996 51.3822 44.4175 50.6403 43.9241 49.7385C43.4597 48.8367 43.2275 47.7894 43.2275 46.5967C43.2275 44.5894 43.8225 43.0475 45.0125 41.9712C46.2026 40.8948 48.0457 40.2257 50.5418 39.9639L56.2453 39.3529V39.0475C56.2453 38.2038 55.868 37.6075 55.1133 37.2584C54.3877 36.8802 53.3283 36.6911 51.935 36.6911C50.8321 36.6911 49.7581 36.8075 48.7132 37.0402C47.6683 37.2729 46.725 37.5638 45.8833 37.9129C45.5059 37.6511 45.1867 37.2584 44.9254 36.7347C44.6642 36.182 44.5336 35.6147 44.5336 35.0329C44.5336 34.2765 44.7078 33.6802 45.0561 33.2438C45.4334 32.7783 45.9994 32.3856 46.754 32.0656C47.5958 31.7456 48.5826 31.5129 49.7146 31.3674C50.8756 31.222 51.9641 31.1492 52.9799 31.1492Z" fill="#FDFDFD"/>
<path d="M76.7732 31.1801C77.9632 31.1801 79.1158 31.3238 80.2477 31.6729C81.4088 31.9929 82.4101 32.4874 83.2519 33.1565C84.1226 32.5747 85.095 32.0947 86.1689 31.7165C87.2719 31.3383 88.5237 31.1801 90.062 31.1801C91.165 31.1801 92.3077 31.2947 93.3526 31.5856C94.4266 31.8765 95.3699 32.342 96.1826 32.982C97.0243 33.5929 97.6919 34.422 98.1853 35.4693C98.6788 36.4875 98.9255 37.7384 98.9255 39.222V53.3682C98.6352 53.4555 98.1708 53.5428 97.5323 53.63C96.9227 53.7173 96.2842 53.7609 95.6166 53.7609C94.9781 53.7609 94.3975 53.7173 93.8751 53.63C93.3817 53.5428 92.9608 53.3682 92.6125 53.1064C92.2642 52.8446 91.9884 52.4955 91.7853 52.0591C91.6111 51.5936 91.524 50.9973 91.524 50.27V39.4402C91.524 38.5675 91.2773 37.942 90.7839 37.5638C90.2905 37.1566 89.6229 36.9529 88.7812 36.9529C88.3748 36.9529 87.9394 37.0547 87.475 37.2584C87.0106 37.4329 86.6623 37.622 86.4301 37.8257C86.4591 37.942 86.4737 38.0584 86.4737 38.1748C86.4737 38.262 86.4737 38.3493 86.4737 38.4366V53.3682C86.1544 53.4555 85.6755 53.5428 85.0369 53.63C84.4274 53.7173 83.8033 53.7609 83.1648 53.7609C82.5262 53.7609 81.9457 53.7173 81.4233 53.63C80.9298 53.5428 80.509 53.3682 80.1607 53.1064C79.8124 52.8446 79.5366 52.4955 79.3334 52.0591C79.1593 51.5936 79.0722 50.9973 79.0722 50.27V39.4402C79.0722 38.5675 78.7965 37.942 78.245 37.5638C77.7225 37.1566 77.084 36.9529 76.3293 36.9529C75.8069 36.9529 75.357 37.0402 74.9797 37.2147C74.6023 37.3602 74.2831 37.5057 74.0218 37.6511V53.3682C73.7316 53.4555 73.2672 53.5428 72.6286 53.63C72.0191 53.7173 71.3805 53.7609 70.7129 53.7609C70.0744 53.7609 69.4939 53.7173 68.9714 53.63C68.478 53.5428 68.0571 53.3682 67.7088 53.1064C67.3605 52.8446 67.0848 52.4955 66.8816 52.0591C66.7075 51.5936 66.6204 50.9973 66.6204 50.27V36.6911C66.6204 35.9056 66.78 35.2802 67.0993 34.8147C67.481 34.2583 67.8997 33.7905 68.4802 33.3832C69.467 32.6851 70.6984 32.2402 72.1497 31.8038C73.63 31.3674 75.1768 31.1801 76.7732 31.1801Z" fill="#FDFDFD"/>
</svg>
