<svg width="26" height="18" viewBox="0 0 26 18" fill="none" xmlns="http://www.w3.org/2000/svg">
<path d="M12.1816 3.28C12.1816 2.4 11.9531 1.64 11.4963 1C11.0142 0.333334 10.2401 0 9.17423 0C8.71742 0 8.24793 0.146667 7.76574 0.440001C7.28355 0.706668 6.72523 1.08 6.09077 1.56L0.647142 6.44C0.215714 7.02667 0 7.82667 0 8.84C0 9.56 0.101513 10.12 0.304537 10.52C0.507563 10.92 0.799414 11.24 1.18009 11.48L8.83162 18C9.92289 17.7067 10.6715 17.2933 11.0776 16.76C11.4583 16.2267 11.6486 15.6533 11.6486 15.04C11.6486 14.3467 11.509 13.7333 11.2299 13.2C10.9507 12.6667 10.6081 12.1067 10.202 11.52H25.2767C25.429 11.2267 25.5939 10.8533 25.7716 10.4C25.9239 9.94667 26 9.45333 26 8.92C26 7.93333 25.797 7.22667 25.3909 6.8C24.9595 6.34667 24.4012 6.12 23.716 6.12H10.202L12.1816 3.28Z" fill="white"/>
</svg>
