<svg width="38" height="38" viewBox="0 0 38 38" fill="none" xmlns="http://www.w3.org/2000/svg">
<path d="M7.8651 3.00126C8.06165 0.729745 10.458 -0.653766 12.5234 0.311772L19.7197 3.67582C20.3849 3.98675 21.1351 4.0656 21.8503 3.89975L29.5888 2.10542C31.8099 1.59041 33.8662 3.44191 33.5862 5.70465L32.6106 13.5883C32.5204 14.317 32.6772 15.0548 33.056 15.6838L37.1538 22.4891C38.33 24.4423 37.2045 26.9701 34.966 27.403L27.1667 28.9113C26.4458 29.0507 25.7926 29.4279 25.3114 29.9825L20.1055 35.9827C18.6113 37.7049 15.8595 37.4156 14.756 35.4205L10.9114 28.469C10.5561 27.8265 9.99548 27.3217 9.31935 27.0355L2.00409 23.9386C-0.095504 23.0497 -0.670802 20.3432 0.885742 18.6772L6.30893 12.8726C6.81018 12.3361 7.11699 11.647 7.18029 10.9155L7.8651 3.00126Z" fill="#FFD26E"/>
</svg>
